PathFileType	4	(X/Y/Z)	C:\Users\Basilio\Documents\Thesis Gigler\squatting_fais\c3dfiles\040\SLS_pre_front2\markers_experimental.trc
DataRate	CameraRate	NumFrames	NumMarkers	Units	OrigDataRate	OrigDataStartFrame	OrigNumFrames
200.000000	200.000000	4	62	mm	200.000000	0	1471
Frame#	Time	FHD			LBHD			RBHD			C7			T10			CLAV			LSHO			LUUPA			LMUPA			LDUPA			LLEP			LMEP			LRAD			LUL			LRFIN			RSHO			RUPA1			RMUPA			RDUPA			RLEP			RMEP			RRAD			RUL			RUFIN			LASI			RASI			USACR			LSACR			RSACR			LTHI1			LTHI2			LTHI3			LTHI4			LLFC			LMFC			LTIB1			LTIB2			LTIB3			LTIB4			LLMAL			LMMAL			LHEE			LMT1			LMT2			LMT5			RTHI			RTHI2			RTHI3			RTHI4			RLFC			RMFC			RTIB1			RTIB2			RTIB3			RTIB4			RLMAL			RMMAL			RHEE			RMT1			RMT2			RMT5			*61			
		X1	Y1	Z1	X2	Y2	Z2	X3	Y3	Z3	X4	Y4	Z4	X5	Y5	Z5	X6	Y6	Z6	X7	Y7	Z7	X8	Y8	Z8	X9	Y9	Z9	X10	Y10	Z10	X11	Y11	Z11	X12	Y12	Z12	X13	Y13	Z13	X14	Y14	Z14	X15	Y15	Z15	X16	Y16	Z16	X17	Y17	Z17	X18	Y18	Z18	X19	Y19	Z19	X20	Y20	Z20	X21	Y21	Z21	X22	Y22	Z22	X23	Y23	Z23	X24	Y24	Z24	X25	Y25	Z25	X26	Y26	Z26	X27	Y27	Z27	X28	Y28	Z28	X29	Y29	Z29	X30	Y30	Z30	X31	Y31	Z31	X32	Y32	Z32	X33	Y33	Z33	X34	Y34	Z34	X35	Y35	Z35	X36	Y36	Z36	X37	Y37	Z37	X38	Y38	Z38	X39	Y39	Z39	X40	Y40	Z40	X41	Y41	Z41	X42	Y42	Z42	X43	Y43	Z43	X44	Y44	Z44	X45	Y45	Z45	X46	Y46	Z46	X47	Y47	Z47	X48	Y48	Z48	X49	Y49	Z49	X50	Y50	Z50	X51	Y51	Z51	X52	Y52	Z52	X53	Y53	Z53	X54	Y54	Z54	X55	Y55	Z55	X56	Y56	Z56	X57	Y57	Z57	X58	Y58	Z58	X59	Y59	Z59	X60	Y60	Z60	X61	Y61	Z61	X62	Y62	Z62	

1	0	-141.1378784179688	1775.152709960938	-1060.4150390625	-260.2971191406251	1730.77294921875	-1120.2109375	-331.3390502929688	1690.303344726563	-997.179626464844	-344.3295593261719	1568.078125	-1037.466064453125	-376.3900756835938	1247.994873046875	-1034.082885742188	-220.4258880615235	1491.566284179688	-1043.201416015625	-275.4065551757813	1522.36181640625	-1217.275756835938	-285.7833251953126	1305.571533203125	-1285.234619140625	-246.378890991211	1285.3115234375	-1265.588745117188	-281.9830932617188	1236.624267578125	-1283.483764648438	-290.1375732421876	1173.5625	-1274.342895507813	-317.8484497070313	1169.326049804688	-1213.211791992188	-113.1162490844727	956.8886718750002	-1204.87060546875	-154.629867553711	934.9494628906252	-1265.673461914063	-61.05008697509767	884.2935180664065	-1219.869262695313	-251.9625854492188	1502.449096679688	-870.6543579101565	-274.1327819824219	1286.595458984375	-794.8461914062502	-236.3090972900391	1265.208862304688	-816.6210937500002	-267.8923645019532	1218.164428710938	-798.2797851562502	-257.4132995605469	1155.849487304688	-803.0766601562502	-299.5048217773438	1147.662719726563	-868.3692626953127	-93.37448120117189	934.1636352539065	-895.0281372070315	-136.476547241211	907.0411376953127	-839.2064208984377	-42.53099060058594	859.230407714844	-883.4128417968752	-197.7327880859376	1076.41943359375	-1156.939697265625	-185.9145965576172	1075.562133789063	-924.9416503906252	-378.7124633789063	1115.2109375	-1029.327392578125	-385.073455810547	1086.749389648438	-1057.338134765625	-383.8580322265626	1085.016845703125	-1001.720764160156	-326.5877990722657	822.4534301757815	-1206.271850585938	-290.2675781250001	745.8083496093751	-1207.37939453125	-243.3564453125001	748.4456176757814	-1210.164916992188	-314.1884765625001	693.7405395507814	-1193.095336914063	-302.2079467773438	558.4383544921876	-1178.91650390625	-301.0873413085938	545.7473754882814	-1046.041748046875	-273.2043457031251	337.9362792968751	-1126.942504882813	-345.8572692871094	296.2321777343751	-1159.87109375	-302.6273803710938	289.0177612304688	-1147.433715820313	-293.1476440429688	214.1186523437501	-1107.403564453125	-359.8595886230469	125.9105758666992	-1107.335327148438	-320.7764892578126	143.1617126464844	-1030.578857421875	-414.3184814453126	96.63138580322268	-1049.666381835938	-200.1843566894532	61.53294372558595	-1050.935913085938	-205.2776031494141	53.01602935791017	-1096.91650390625	-261.1708374023438	36.75051879882813	-1138.133911132813	-249.9837341308594	805.446228027344	-854.8018798828127	-218.1144104003907	747.3870849609376	-859.9326782226565	-185.2641296386719	748.2989501953126	-866.1709594726565	-251.8847045898438	671.6937255859376	-873.8559570312502	-253.1392822265626	536.2659301757814	-887.2062988281252	-247.5213470458985	530.4696044921876	-1020.5244140625	-205.0267333984376	350.7442321777344	-912.8713378906252	-275.3772583007813	273.8778076171876	-890.7042236328127	-229.9609527587891	269.3216857910157	-900.0162353515627	-213.3768310546876	223.6529541015626	-934.1375122070315	-265.1943359375001	111.5616531372071	-917.8259887695315	-244.4114837646485	125.4465255737305	-1003.420776367188	-324.0962524414063	70.79859161376955	-974.203063964844	-103.8451385498047	56.36017990112306	-984.9259033203127	-108.4400634765625	56.83989715576173	-946.168640136719	-149.9351043701172	34.31868743896485	-892.558532714844	nan	nan	nan	
2	0.005	-141.3377227783203	1775.267578125	-1060.632568359375	-260.6954956054688	1730.841918945313	-1120.127319335938	-331.3137512207032	1690.27734375	-996.9796142578127	-344.4102783203126	1568.013793945313	-1037.417236328125	-376.2494506835938	1247.935913085938	-1034.156494140625	-220.4554748535157	1491.617553710938	-1043.142333984375	-275.3172912597657	1522.405395507813	-1217.239868164063	-285.9123535156251	1305.618530273438	-1285.196411132813	-246.451644897461	1285.331298828125	-1265.625244140625	-282.0824584960938	1236.63232421875	-1283.393432617188	-290.1823120117188	1173.577514648438	-1274.264282226563	-316.2345581054688	1169.332275390625	-1212.594360351563	-112.4179611206055	956.3721923828127	-1204.855712890625	-154.6453552246094	934.9555664062502	-1265.706665039063	-61.04346084594728	884.3159179687502	-1219.915283203125	-252.205795288086	1502.375732421875	-870.5408325195315	-274.2608337402344	1286.548217773438	-794.8213500976565	-236.3420410156251	1265.198974609375	-816.5771484375002	-267.9795532226563	1218.126831054688	-798.2112426757815	-257.4726562500001	1155.790649414063	-803.0397949218752	-299.4921264648438	1147.601928710938	-868.286804199219	-93.30166625976564	934.143249511719	-894.7603759765627	-136.5203399658203	907.0150146484377	-838.9534912109377	-42.52364730834962	859.2297973632815	-883.0882568359377	-197.5209655761719	1076.348999023438	-1156.776245117188	-185.8783569335938	1075.50634765625	-924.8679199218752	-378.6002502441407	1115.226318359375	-1029.37158203125	-384.9426269531251	1086.701171875	-1057.40771484375	-383.7568359375001	1085.036743164063	-1001.767944335938	-326.4965820312501	822.472595214844	-1206.353271484375	-290.2819824218751	745.8494262695314	-1207.415893554688	-243.3340148925782	748.4394531250001	-1210.146850585938	-314.2069702148438	693.7657470703126	-1193.142456054688	-302.3648376464844	558.4544067382814	-1178.947875976563	-301.4687194824219	545.7484130859376	-1046.0419921875	-273.3786315917969	338.0228881835938	-1126.868041992188	-345.9241333007813	296.2148742675782	-1159.919555664063	-302.6865539550782	289.0763549804688	-1147.423828125	-292.6130981445313	213.4977111816407	-1107.365112304688	-358.4515075683594	125.6447677612305	-1106.739135742188	-320.7461547851563	143.161376953125	-1030.614379882813	-414.3425903320314	96.61331939697268	-1049.628540039063	-200.2208709716797	61.52658462524415	-1050.992431640625	-205.2864685058594	53.02206802368165	-1096.939331054688	-261.1772460937501	36.76332473754884	-1138.15673828125	-250.0336456298829	805.4046020507815	-854.7601318359377	-218.1298522949219	747.3566284179689	-859.8812255859377	-185.2535095214844	748.2628784179689	-866.0767211914065	-251.9950408935547	671.6755371093751	-873.7829589843752	-253.2059783935547	536.2204589843751	-887.2200317382815	-247.5259246826172	530.4362182617189	-1020.513305664063	-205.0852203369141	350.7320251464844	-912.906677246094	-275.3988647460938	273.8646545410157	-890.7091064453127	-230.0319976806641	269.2789306640626	-900.028991699219	-213.3666076660157	223.627426147461	-934.1232910156252	-265.1859741210938	111.556755065918	-917.8728027343752	-244.4114837646485	125.4465255737305	-1003.420776367188	-324.1259155273438	70.78526306152345	-974.1834716796877	-103.8508071899414	56.35775375366212	-984.9259033203127	-108.4480361938477	56.80172348022462	-946.165466308594	-149.9564361572266	34.31253814697266	-892.548767089844	nan	nan	nan	
3	0.01	-141.6431427001953	1775.330322265625	-1060.829711914063	-261.0897216796876	1730.892578125	-1120.01416015625	-331.3261718750001	1690.227416992188	-996.7322387695315	-344.5917968750001	1567.970947265625	-1037.362426757813	-376.1616210937501	1247.890747070313	-1034.196655273438	-220.4340209960938	1491.712646484375	-1043.02294921875	-275.2752380371094	1522.450927734375	-1217.2373046875	-285.9266357421876	1305.523803710938	-1285.212158203125	-246.4275360107422	1285.318969726563	-1265.639038085938	-282.2120971679688	1236.649291992188	-1283.365844726563	-290.2666320800782	1173.60546875	-1274.161254882813	-317.6780395507813	1169.396728515625	-1212.882446289063	-112.5172119140625	957.222351074219	-1204.81591796875	-154.7628021240235	934.948425292969	-1265.71875	-61.1021194458008	884.2521972656252	-1220.052856445313	-252.4356079101563	1502.35009765625	-870.4694824218752	-274.3182373046876	1286.4970703125	-794.7876586914065	-236.4762725830079	1265.191772460938	-816.5029296875002	-268.0793457031251	1218.079711914063	-798.1480712890627	-257.5780639648438	1155.68505859375	-802.9437255859377	-299.5866699218751	1147.605224609375	-868.287048339844	-93.32038879394533	934.1175537109377	-894.491882324219	-136.687240600586	907.004333496094	-838.6404418945315	-42.50708770751954	859.2241210937502	-882.7673950195315	-197.3174743652344	1076.305297851563	-1156.7216796875	-185.7968444824219	1075.453125	-924.7744750976565	-378.4517517089844	1115.208862304688	-1029.426879882813	-384.7156066894532	1086.749267578125	-1057.478881835938	-383.7271423339844	1085.019165039063	-1001.84619140625	-326.4284057617188	822.5300903320315	-1206.409912109375	-290.2819824218751	745.8494262695314	-1207.415893554688	-243.2911376953126	748.4008789062501	-1210.082763671875	-314.3156127929688	693.8147583007814	-1193.210327148438	-302.5278320312501	558.9194335937501	-1178.88671875	-301.8040161132813	545.7317504882814	-1046.06640625	-273.5361938476563	338.0534667968751	-1126.8720703125	-346.0259399414063	296.2552185058594	-1159.933227539063	-302.8674011230469	289.1316528320313	-1147.429565429688	-292.6943359375001	213.5446166992188	-1107.339965820313	-358.4908447265626	125.652587890625	-1106.768432617188	-320.8355102539063	143.1699371337891	-1030.579223632813	-414.3627929687501	96.63320922851565	-1049.662719726563	-200.1707153320313	61.50465393066408	-1050.991577148438	-205.2775573730469	53.0160255432129	-1096.91650390625	-261.1685485839844	36.74669265747071	-1138.120483398438	-250.1219482421876	805.3808593750002	-854.653991699219	-218.1686553955079	747.3048095703126	-859.853210449219	-185.2792663574219	748.1928100585939	-866.053894042969	-252.0506286621094	671.6528320312501	-873.7338867187502	-253.2854766845704	536.2274169921876	-887.2254638671877	-248.9526062011719	530.6846923828126	-1020.637451171875	-205.0877838134766	350.6874084472657	-912.8236083984377	-275.4231262207032	273.8441772460938	-890.7557373046877	-230.0688629150391	269.2421264648438	-900.004089355469	-213.4131622314454	223.6428985595704	-934.1545410156252	-265.1707763671876	111.5355377197266	-917.8733520507815	-244.4341125488282	125.4468612670899	-1003.445861816406	-324.1297912597657	70.82762908935548	-974.2237548828127	-103.8451309204102	56.36016845703126	-984.9259033203127	-108.4575347900391	56.82582855224611	-946.1673583984377	-149.9248504638672	34.32930374145509	-892.579284667969	nan	nan	nan	
4	0.015	-141.8647613525391	1775.524291992188	-1061.045654296875	-261.4717712402344	1730.941284179688	-1119.920532226563	-331.4828796386719	1690.181274414063	-996.491638183594	-344.9417114257813	1567.922485351563	-1037.297607421875	-376.0636291503907	1247.811645507813	-1034.304565429688	-220.4510345458985	1491.7392578125	-1042.961669921875	-275.1986694335938	1522.510498046875	-1217.210327148438	-286.0240173339844	1305.599243164063	-1285.170532226563	-246.463607788086	1285.315063476563	-1265.762939453125	-282.2483215332032	1236.638427734375	-1283.302490234375	-290.3005981445313	1173.610961914063	-1274.1376953125	-317.6351318359376	1169.430541992188	-1212.734985351563	-112.3230895996094	956.408630371094	-1205.06640625	-154.8639678955078	934.9400634765627	-1265.723510742188	-61.15303802490236	884.235778808594	-1220.182373046875	-252.5512390136719	1502.336669921875	-870.4155273437502	-274.3999938964844	1286.469116210938	-794.787780761719	-236.6101379394532	1265.18017578125	-816.4233398437502	-268.3054199218751	1218.0390625	-798.0631103515627	-257.7634277343751	1155.644653320313	-802.870300292969	-299.5913391113282	1147.548706054688	-868.2366943359377	-93.31974029541017	934.066345214844	-894.2224731445315	-136.9503326416016	906.970886230469	-838.3542480468752	-42.52672576904298	859.1550903320315	-882.4822998046877	-197.0860900878907	1076.266967773438	-1156.654052734375	-185.7646942138672	1075.421020507813	-924.680603027344	-378.3242187500001	1115.216674804688	-1029.524047851563	-384.5778198242189	1086.75439453125	-1057.507568359375	-383.5249938964844	1085.00537109375	-1001.926940917969	-326.3357543945313	822.564880371094	-1206.476196289063	-290.2335205078126	745.8549194335939	-1207.422973632813	-243.3375396728516	748.3906860351564	-1210.02392578125	-314.3739318847657	693.8588867187501	-1193.312622070313	-302.7235412597657	558.9514160156251	-1178.911499023438	-302.0712585449219	545.7139282226564	-1046.059814453125	-273.7050476074219	338.0765075683594	-1126.810302734375	-346.1276245117188	296.2779235839844	-1159.955932617188	-302.9220581054688	289.1933288574219	-1147.413208007813	-292.7595520019532	213.5512084960938	-1107.341552734375	-359.8887939453126	125.9114074707032	-1107.334350585938	-320.8414916992188	143.1683502197266	-1030.604858398438	-414.367401123047	96.5999450683594	-1049.655883789063	-200.0985565185547	61.52197647094728	-1050.98486328125	-205.2776031494141	53.01602935791017	-1096.91650390625	-261.2161254882813	36.8016586303711	-1138.134033203125	-250.1474151611329	805.361999511719	-854.624938964844	-218.169418334961	747.2997436523439	-859.7810668945315	-185.3096160888672	748.1942749023439	-866.005798339844	-252.1136016845704	671.6113281250001	-873.659606933594	-253.2942504882813	536.2221679687501	-887.1682739257815	-249.0711364746094	530.7021484375001	-1020.573120117188	-205.0928344726563	350.7088928222657	-912.8176879882815	-275.4653625488282	273.8062744140626	-890.7022705078127	-230.0986938476563	269.2290954589844	-899.9770507812502	-213.409164428711	223.6449890136719	-934.1459960937502	-265.1863403320313	111.4991683959961	-917.8819580078127	-244.4114837646485	125.4465255737305	-1003.420776367188	-324.1360778808594	70.77144622802736	-974.2674560546877	-103.8564758300782	56.3555374145508	-984.925964355469	-108.4496307373047	56.86424255371095	-946.1706542968752	-149.946762084961	34.27842330932618	-892.5806884765627	nan	nan	nan	
